<?xml version="1.0" encoding="utf-8"?>
<!-- Generator: Adobe Illustrator 16.0.0, SVG Export Plug-In . SVG Version: 6.00 Build 0)  -->
<!DOCTYPE svg PUBLIC "-//W3C//DTD SVG 1.1//EN" "http://www.w3.org/Graphics/SVG/1.1/DTD/svg11.dtd">
<svg version="1.1" id="Behance" xmlns="http://www.w3.org/2000/svg" xmlns:xlink="http://www.w3.org/1999/xlink" x="0px" y="0px"
	 width="200px" height="200px" viewBox="1400 1400 200 200" enable-background="new 1400 1400 200 200" xml:space="preserve">
<g>
	<circle id="behance-back" display="none" fill="#262626" cx="1500" cy="1500" r="100"/>
	<path id="behance-behance" fill="#FFFFFF" d="M1475.895,1503.859h-17.921v18.91h17.641c6.063,0,10.867-1.932,10.867-9.079
		C1486.482,1506.681,1482.436,1503.859,1475.895,1503.859z M1473.593,1476.335h-15.619v16.087h16.792
		c5.32,0,9.318-2.398,9.318-8.182C1484.085,1477.652,1479.049,1476.335,1473.593,1476.335z M1502.194,1513.971
		c0,13.978-11.997,19.949-24.51,19.949H1444v-69.206h32.699c13.213,0,22.2,4.66,22.2,17.501c0,6.729-3.43,11.432-9.451,14.346
		C1497.911,1498.963,1502.194,1505.412,1502.194,1513.971z M1518.662,1469.374h27.847v9.267h-27.847V1469.374z M1531.127,1493.083
		c-8.752,0-11.293,4.896-11.479,8.702h22.488C1540.866,1494.872,1537.857,1493.083,1531.127,1493.083z M1519.647,1510.775
		c0.375,8.655,4.657,14.206,12.329,14.206c5.548,0,10.631-4.52,11.527-7.62h12.136c-3.857,11.765-12.753,17.925-24.137,17.925
		c-15.851,0-25.829-10.777-25.829-26.207c0-14.916,10.583-26.3,25.829-26.3c17.13,0,25.406,12.658,24.417,27.997H1519.647z"/>
</g>
</svg>
