<?xml version="1.0" encoding="utf-8"?>
<!-- Generator: Adobe Illustrator 16.0.0, SVG Export Plug-In . SVG Version: 6.00 Build 0)  -->
<!DOCTYPE svg PUBLIC "-//W3C//DTD SVG 1.1//EN" "http://www.w3.org/Graphics/SVG/1.1/DTD/svg11.dtd">
<svg version="1.1" id="Linkedin" xmlns="http://www.w3.org/2000/svg" xmlns:xlink="http://www.w3.org/1999/xlink" x="0px" y="0px"
	 width="200px" height="200px" viewBox="1400 1400 200 200" enable-background="new 1400 1400 200 200" xml:space="preserve">
<g>
	<circle id="linkedin-back" display="none" fill="#262626" cx="1500" cy="1500" r="100"/>
	<g id="linkedin-linkedin">
		<path fill="#FFFFFF" d="M1445.43,1480.855h23.232v74.676h-23.232V1480.855z M1457.053,1443.733c7.424,0,13.451,6.03,13.451,13.459
			c0,7.43-6.027,13.459-13.451,13.459c-7.454,0-13.464-6.029-13.464-13.459C1443.588,1449.764,1449.599,1443.733,1457.053,1443.733"
			/>
		<path fill="#FFFFFF" d="M1483.222,1480.855h22.247v10.208h0.318c3.095-5.871,10.668-12.062,21.959-12.062
			c23.499,0,27.842,15.462,27.842,35.574v40.956h-23.206v-36.315c0-8.659-0.149-19.8-12.06-19.8c-12.076,0-13.92,9.438-13.92,19.18
			v36.936h-23.18V1480.855z"/>
	</g>
</g>
</svg>
