<?xml version="1.0" encoding="utf-8"?>
<!-- Generator: Adobe Illustrator 16.0.0, SVG Export Plug-In . SVG Version: 6.00 Build 0)  -->
<!DOCTYPE svg PUBLIC "-//W3C//DTD SVG 1.1//EN" "http://www.w3.org/Graphics/SVG/1.1/DTD/svg11.dtd">
<svg version="1.1" id="Twitter" xmlns="http://www.w3.org/2000/svg" xmlns:xlink="http://www.w3.org/1999/xlink" x="0px" y="0px"
	 width="200px" height="200px" viewBox="1400 1400 200 200" enable-background="new 1400 1400 200 200" xml:space="preserve">
<g>
	<circle id="twitter-back" fill="#262626" cx="1500" cy="1500" r="100"/>
	<path id="twitter-twitter" fill="#FFFFFF" d="M1556,1465.265c-4.119,1.828-8.549,3.063-13.197,3.617
		c4.742-2.844,8.387-7.346,10.103-12.712c-4.438,2.633-9.356,4.547-14.591,5.576c-4.191-4.466-10.163-7.255-16.771-7.255
		c-12.692,0-22.979,10.287-22.979,22.976c0,1.803,0.203,3.557,0.595,5.237c-19.098-0.957-36.029-10.105-47.361-24.008
		c-1.979,3.394-3.112,7.341-3.112,11.551c0,7.974,4.058,15.005,10.222,19.126c-3.766-0.118-7.31-1.152-10.407-2.874
		c-0.002,0.096-0.002,0.192-0.002,0.291c0,11.131,7.921,20.418,18.433,22.53c-1.928,0.524-3.958,0.806-6.054,0.806
		c-1.48,0-2.92-0.146-4.323-0.412c2.924,9.129,11.41,15.771,21.465,15.957c-7.864,6.164-17.772,9.837-28.539,9.837
		c-1.854,0-3.683-0.107-5.48-0.321c10.17,6.52,22.247,10.323,35.224,10.323c42.265,0,65.378-35.013,65.378-65.378
		c0-0.997-0.022-1.987-0.066-2.973C1549.023,1473.921,1552.92,1469.872,1556,1465.265z"/>
</g>
</svg>
