<?xml version="1.0" encoding="utf-8"?>
<!-- Generator: Adobe Illustrator 16.0.0, SVG Export Plug-In . SVG Version: 6.00 Build 0)  -->
<!DOCTYPE svg PUBLIC "-//W3C//DTD SVG 1.1//EN" "http://www.w3.org/Graphics/SVG/1.1/DTD/svg11.dtd">
<svg version="1.1" xmlns="http://www.w3.org/2000/svg" xmlns:xlink="http://www.w3.org/1999/xlink" x="0px" y="0px" width="128px"
	 height="128.002px" viewBox="0 0 128 128.002" enable-background="new 0 0 128 128.002" xml:space="preserve">
<g id="Layer_1" display="none">
	<g id="Facebook_1_" display="inline">
		<circle id="back_4_" fill="#1F2732" cx="64" cy="64.001" r="64"/>
		<path id="Facebook_3_" fill="#FFFFFF" d="M95.137,29H32.863C30.729,29,29,30.729,29,32.864v62.274c0,2.133,1.73,3.863,3.864,3.863
			h33.524V71.893h-9.121V61.329h9.121v-7.792c0-9.041,5.523-13.965,13.587-13.965c3.864,0,7.186,0.288,8.153,0.416v9.45
			l-5.593,0.002c-4.388,0-5.236,2.084-5.236,5.144v6.745h10.46l-1.361,10.564h-9.099v27.108h17.838c2.135,0,3.862-1.73,3.862-3.863
			V32.864C98.999,30.729,97.271,29,95.137,29z"/>
	</g>
</g>
<g id="Layer_2" display="none">
	<g id="Linkedin_3_" display="inline">
		<circle id="back_8_" fill="#1F2732" cx="64" cy="64.001" r="64"/>
		<g id="Linkedin_6_">
			<path fill="#FFFFFF" d="M29.076,51.748h14.869V99.54H29.076V51.748z M36.514,27.991c4.751,0,8.609,3.858,8.609,8.613
				c0,4.754-3.857,8.613-8.609,8.613c-4.771,0-8.617-3.859-8.617-8.613C27.897,31.85,31.744,27.991,36.514,27.991"/>
			<path fill="#FFFFFF" d="M53.263,51.748H67.5v6.534h0.205c1.981-3.757,6.826-7.721,14.053-7.721
				c15.04,0,17.818,9.896,17.818,22.768v26.21H84.725v-23.24c0-5.543-0.096-12.672-7.719-12.672c-7.729,0-8.908,6.039-8.908,12.274
				V99.54H53.263V51.748z"/>
		</g>
	</g>
</g>
<g id="Layer_3">
	<g id="Instagram_2_">
		<circle id="back_7_" fill="#1F2732" cx="64" cy="64.001" r="64"/>
		<path id="Instagram_3_" fill-rule="evenodd" clip-rule="evenodd" fill="#FFFFFF" d="M91.57,58.484h-6.239
			c0.454,1.766,0.724,3.609,0.724,5.516c0,12.185-9.875,22.057-22.056,22.057c-12.179,0-22.054-9.872-22.054-22.057
			c0-1.906,0.271-3.75,0.725-5.516h-6.241v30.329c0,1.521,1.234,2.755,2.76,2.755H88.81c1.526,0,2.761-1.234,2.761-2.755V58.484z
			 M91.57,39.187c0-1.522-1.234-2.755-2.761-2.755h-8.267c-1.523,0-2.758,1.233-2.758,2.755v8.272c0,1.522,1.234,2.757,2.758,2.757
			h8.267c1.526,0,2.761-1.234,2.761-2.757V39.187z M63.999,50.216c-7.612,0-13.784,6.17-13.784,13.783s6.171,13.787,13.784,13.787
			c7.615,0,13.787-6.174,13.787-13.787S71.613,50.216,63.999,50.216 M91.57,99.841H36.429c-4.567,0-8.269-3.703-8.269-8.273V36.432
			c0-4.568,3.702-8.27,8.269-8.27H91.57c4.568,0,8.27,3.702,8.27,8.27v55.136C99.84,96.138,96.139,99.841,91.57,99.841"/>
	</g>
</g>
</svg>
